HIERARCHY
ROOT Hips
{
	OFFSET 0.000000 0.000000 0.000000
	CHANNELS 6 Xposition Yposition Zposition Zrotation Yrotation Xrotation 
	JOINT LHipJoint
	{
		OFFSET 0.000000 0.000000 0.000000
		CHANNELS 3 Zrotation Yrotation Xrotation
		JOINT LeftUpLeg
		{
			OFFSET 1.363060 -1.794630 0.839290
			CHANNELS 3 Zrotation Yrotation Xrotation
			JOINT LeftLeg
			{
				OFFSET 2.448110 -6.726130 0.000000
				CHANNELS 3 Zrotation Yrotation Xrotation
				JOINT LeftFoot
				{
					OFFSET 2.562200 -7.039590 0.000000
					CHANNELS 3 Zrotation Yrotation Xrotation
					JOINT LeftToeBase
					{
						OFFSET 0.157640 -0.433110 2.322550
						CHANNELS 3 Zrotation Yrotation Xrotation
						End Site
						{
							OFFSET 0.000000 0.000000 0.000000
						}
					}
				}
			}
		}
	}
	JOINT RHipJoint
	{
		OFFSET 0.000000 0.000000 0.000000
		CHANNELS 3 Zrotation Yrotation Xrotation
		JOINT RightUpLeg
		{
			OFFSET -1.305520 -1.794630 0.839290
			CHANNELS 3 Zrotation Yrotation Xrotation
			JOINT RightLeg
			{
				OFFSET -2.542530 -6.985550 0.000000
				CHANNELS 3 Zrotation Yrotation Xrotation
				JOINT RightFoot
				{
					OFFSET -2.568260 -7.056230 0.000000
					CHANNELS 3 Zrotation Yrotation Xrotation
					JOINT RightToeBase
					{
						OFFSET -0.164730 -0.452590 2.363150
						CHANNELS 3 Zrotation Yrotation Xrotation
						End Site
						{
							OFFSET 0.000000 0.000000 0.000000
						}
					}
				}
			}
		}
	}
	JOINT LowerBack
	{
		OFFSET 0.000000 0.000000 0.000000
		CHANNELS 3 Zrotation Yrotation Xrotation
		JOINT Spine
		{
			OFFSET 0.028270 2.035590 -0.193380
			CHANNELS 3 Zrotation Yrotation Xrotation
			JOINT Spine1
			{
				OFFSET 0.056720 2.048850 -0.042750
				CHANNELS 3 Zrotation Yrotation Xrotation
				JOINT Neck
				{
					OFFSET 0.000000 0.000000 0.000000
					CHANNELS 3 Zrotation Yrotation Xrotation
					JOINT Neck1
					{
						OFFSET -0.054170 1.746240 0.172020
						CHANNELS 3 Zrotation Yrotation Xrotation
						JOINT Head
						{
							OFFSET 0.104070 1.761360 -0.123970
							CHANNELS 3 Zrotation Yrotation Xrotation
							End Site
							{
								OFFSET 0.000000 0.000000 0.000000
							}
						}
					}
				}
				JOINT LeftShoulder
				{
					OFFSET 0.000000 0.000000 0.000000
					CHANNELS 3 Zrotation Yrotation Xrotation
					JOINT LeftArm
					{
						OFFSET 3.362410 1.200890 -0.311210
						CHANNELS 3 Zrotation Yrotation Xrotation
						JOINT LeftForeArm
						{
							OFFSET 4.983000 -0.000000 -0.000000
							CHANNELS 3 Zrotation Yrotation Xrotation
							JOINT LeftHand
							{
								OFFSET 3.483560 -0.000000 -0.000000
								CHANNELS 3 Zrotation Yrotation Xrotation
								JOINT LeftFingerBase
								{
									OFFSET 0.000000 0.000000 0.000000
									CHANNELS 3 Zrotation Yrotation Xrotation
									JOINT LeftHandIndex1
									{
										OFFSET 0.715260 -0.000000 -0.000000
										CHANNELS 3 Zrotation Yrotation Xrotation
										End Site
										{
											OFFSET 0.000000 0.000000 0.000000
										}
									}
								}
								JOINT LThumb
								{
									OFFSET 0.000000 0.000000 0.000000
									CHANNELS 3 Zrotation Yrotation Xrotation
									End Site
									{
										OFFSET 0.000000 0.000000 0.000000
									}
								}
							}
						}
					}
				}
				JOINT RightShoulder
				{
					OFFSET 0.000000 0.000000 0.000000
					CHANNELS 3 Zrotation Yrotation Xrotation
					JOINT RightArm
					{
						OFFSET -3.136600 1.374050 -0.404650
						CHANNELS 3 Zrotation Yrotation Xrotation
						JOINT RightForeArm
						{
							OFFSET -5.241900 -0.000000 -0.000000
							CHANNELS 3 Zrotation Yrotation Xrotation
							JOINT RightHand
							{
								OFFSET -3.444170 -0.000000 -0.000000
								CHANNELS 3 Zrotation Yrotation Xrotation
								JOINT RightFingerBase
								{
									OFFSET 0.000000 0.000000 0.000000
									CHANNELS 3 Zrotation Yrotation Xrotation
									JOINT RightHandIndex1
									{
										OFFSET -0.622530 -0.000000 -0.000000
										CHANNELS 3 Zrotation Yrotation Xrotation
										End Site
										{
											OFFSET 0.000000 0.000000 0.000000
										}
									}
								}
								JOINT RThumb
								{
									OFFSET 0.000000 0.000000 0.000000
									CHANNELS 3 Zrotation Yrotation Xrotation
									End Site
									{
										OFFSET 0.000000 0.000000 0.000000
									}
								}
							}
						}
					}
				}
			}
		}
	}
}
MOTION
Frames: 9
Frame Time: 0.008333
17.364326 17.625919 4.132608 -179.623368 -29.007981 172.749608 6.456981 0.851753 -0.303753 -27.290175 -15.422045 8.454933 -1.101358 7.487476 22.397735 -4.594174 22.025970 -22.182323 0.003400 -0.376500 -1.034400 -9.183796 0.057347 -2.656102 34.475298 14.559569 9.427633 -0.465868 -8.292130 23.051094 3.147827 -22.680729 -29.031362 -0.744300 5.511100 -15.372200 -1.471824 1.630707 4.639781 1.967508 2.332274 1.985592 -5.763946 0.845833 1.667846 5.609132 3.392500 -1.472737 7.405048 2.897461 10.919959 -2.768100 2.107600 3.177400 7.121504 4.707246 -0.985983 -97.053830 2.463837 37.886030 12.128576 -14.579176 -2.706668 -1.329528 -3.738623 -1.399043 14.829226 9.229344 3.757300 -7.125000 0.000000 0.000000 -10.020500 43.257200 0.435600 -9.832433 -5.558807 0.554029 105.976254 -2.144722 48.639333 -11.154797 17.076665 -3.338109 -0.513650 2.150166 -19.645867 -6.416394 -3.197213 0.630600 7.125000 0.000000 0.000000 16.513900 -35.012500 4.196300 
17.366157 17.625232 4.134783 -179.700646 -29.016068 172.764008 6.472449 0.851031 -0.308742 -27.388772 -15.418570 8.484761 -1.105268 7.481188 22.368502 -4.645939 22.168760 -22.121219 0.005100 -0.459100 -1.261400 -9.171429 0.061522 -2.654238 34.406705 14.599478 9.435090 -0.475292 -8.307730 23.106267 3.141448 -22.673345 -29.058310 -0.756300 5.554300 -15.496700 -1.393152 1.623608 4.685524 1.896175 2.331873 1.976775 -6.012590 0.859986 1.650523 5.695331 3.417814 -1.416549 7.470782 2.912141 10.886002 -2.728000 2.113100 3.137700 7.120968 4.711914 -0.967309 -96.777961 2.449862 37.980941 12.071532 -14.661402 -2.891176 -1.236006 -2.875666 -1.781278 13.305402 4.764081 1.991100 -7.125000 0.000000 0.000000 -10.369700 37.685000 1.891700 -9.862287 -5.564316 0.562751 106.181143 -2.160735 48.646501 -11.150366 17.085138 -3.345095 -0.521660 2.147449 -19.613321 -6.339198 -3.200941 0.622700 7.125000 0.000000 0.000000 16.584600 -35.011600 4.215900 
17.367989 17.624774 4.136271 -179.696968 -29.071512 172.766385 6.476117 0.849281 -0.307576 -27.374083 -15.413986 8.431525 -1.101349 7.497125 22.412878 -4.563488 21.949866 -22.215683 0.000700 -0.175600 -0.482500 -9.164598 0.065199 -2.655149 34.411020 14.604949 9.457375 -0.470755 -8.296030 23.076556 3.135316 -22.664489 -29.081898 -0.761700 5.573500 -15.551800 -1.300631 1.620743 4.702099 1.856530 2.336665 1.966862 -6.184538 0.870333 1.637752 5.820960 3.391920 -1.409757 7.454168 2.870889 10.889165 -2.754800 2.095400 3.140000 7.133400 4.714458 -0.970022 -96.598219 2.453495 38.132748 12.057454 -14.663130 -2.897071 -1.197372 -2.862877 -1.784532 13.106679 4.763000 1.953900 -7.125000 0.000000 0.000000 -10.567500 37.655700 1.936500 -9.880455 -5.562722 0.567237 106.316365 -2.191502 48.635634 -11.166198 17.127996 -3.362301 -0.535562 2.153290 -19.637128 -6.278828 -3.265366 0.624400 7.125000 0.000000 0.000000 16.657000 -35.079600 4.207000 
17.366157 17.623859 4.136386 -179.647145 -29.108282 172.755822 6.473449 0.851576 -0.302910 -27.324086 -15.427084 8.401818 -1.099102 7.503552 22.435622 -4.506762 21.791480 -22.268490 0.000000 -0.026300 -0.072200 -9.163730 0.061461 -2.659464 34.425048 14.509181 9.384022 -0.466363 -8.297361 23.058407 3.206719 -22.898103 -29.063382 -0.820400 5.779500 -16.145800 -1.220834 1.615696 4.679900 1.852748 2.336465 1.961477 -6.253821 0.872472 1.647248 5.900589 3.375386 -1.447366 7.424964 2.849061 10.934069 -2.789100 2.091900 3.177800 7.137299 4.723319 -0.973246 -96.576518 2.451438 38.006331 12.054927 -14.656103 -2.894079 -1.183286 -2.854945 -1.598601 13.013516 4.783646 1.941700 -7.125000 0.000000 0.000000 -10.668700 37.665200 1.953000 -9.880888 -5.562800 0.565383 106.345099 -2.208215 48.647939 -11.173973 17.151402 -3.371411 -0.547575 2.158434 -19.601834 -6.231978 -3.342707 0.628500 7.125000 0.000000 0.000000 16.721600 -35.159700 4.190500 
17.365699 17.623515 4.136500 -179.626547 -29.091532 172.746147 6.471485 0.855062 -0.301638 -27.287558 -15.392833 8.368584 -1.091958 7.514326 22.460853 -4.549277 21.889564 -22.183255 0.001100 -0.218300 -0.599700 -9.162942 0.055438 -2.661986 34.415500 14.412862 9.321716 -0.461171 -8.293383 23.033195 3.242571 -23.029444 -29.083154 -0.831500 5.817300 -16.255200 -1.221615 1.619008 4.680377 1.861624 2.340451 1.957349 -6.226419 0.873130 1.634640 5.876085 3.394932 -1.479183 7.464549 2.869894 10.974964 -2.764300 2.108000 3.208200 7.131424 4.727259 -0.976006 -96.623581 2.449205 37.815195 12.057008 -14.643347 -2.885710 -1.193183 -2.850751 -1.467125 13.043882 4.780318 1.945300 -7.125000 0.000000 0.000000 -10.639500 37.662700 1.948200 -9.875310 -5.560696 0.561670 106.336573 -2.199324 48.675173 -11.166276 17.132475 -3.364044 -0.552342 2.168965 -19.551302 -6.257784 -3.437256 0.642800 7.125000 0.000000 0.000000 16.725900 -35.263500 4.147600 
17.369019 17.624660 4.137073 -179.614166 -29.105080 172.725702 6.466589 0.854455 -0.302808 -27.249746 -15.369957 8.347154 -1.086098 7.523025 22.486493 -4.553994 21.889704 -22.148203 0.001400 -0.245400 -0.674200 -9.168319 0.056721 -2.661333 34.457084 14.458015 9.402547 -0.458585 -8.280323 23.011976 3.195151 -22.875906 -29.098359 -0.797600 5.700500 -15.917700 -1.297169 1.613721 4.692246 1.888153 2.326354 1.965314 -6.102067 0.859927 1.648127 5.791082 3.412269 -1.521896 7.509669 2.890031 10.984478 -2.728700 2.118700 3.223400 7.120024 4.714277 -0.973623 -96.724907 2.407727 37.639685 12.066140 -14.634758 -2.880062 -1.203824 -2.853328 -1.396358 13.090508 4.790787 1.956600 -7.125000 0.000000 0.000000 -10.596700 37.681000 1.935300 -9.862977 -5.551199 0.556903 106.251854 -2.151912 48.738242 -11.164090 17.117676 -3.359086 -0.550755 2.168553 -19.584237 -6.274336 -3.438264 0.644700 7.125000 0.000000 0.000000 16.710400 -35.264500 4.143100 
17.370393 17.622943 4.137989 -179.607738 -29.140728 172.700788 6.466412 0.850852 -0.299679 -27.287723 -15.489448 8.418352 -1.086512 7.523870 22.495106 -4.554846 21.913634 -22.200187 0.001100 -0.212100 -0.582900 -9.174136 0.057639 -2.662372 34.500474 14.484004 9.452740 -0.456048 -8.273401 22.996384 3.222218 -22.970264 -29.101796 -0.815400 5.762200 -16.096100 -1.339328 1.554263 4.713182 1.906460 2.242100 1.964787 -6.024614 0.814887 1.635722 5.731047 3.475071 -1.493107 7.518966 2.976726 10.972947 -2.712600 2.159400 3.213800 7.116060 4.712899 -0.972104 -96.797144 2.434066 37.453249 12.085707 -14.660873 -2.886036 -1.199870 -2.864247 -1.467702 13.095973 4.810991 1.965000 -7.125000 0.000000 0.000000 -10.597400 37.711600 1.927400 -9.858145 -5.551349 0.559050 106.167544 -2.131060 48.864875 -11.137439 17.074061 -3.347179 -0.546663 2.147871 -19.535037 -6.199451 -3.342736 0.623700 7.125000 0.000000 0.000000 16.750000 -35.148000 4.203100 
17.368676 17.621340 4.139019 -179.595706 -29.134480 172.685345 6.473637 0.850493 -0.297793 -27.341713 -15.599555 8.487185 -1.087399 7.523045 22.488572 -4.638227 22.164094 -22.176485 0.005600 -0.484000 -1.329800 -9.172555 0.057331 -2.662224 34.508917 14.458274 9.419898 -0.453063 -8.273954 22.986570 3.268395 -23.141572 -29.130011 -0.827300 5.803000 -16.213900 -1.272607 1.543178 4.740440 1.889437 2.231794 1.954152 -6.100869 0.814532 1.593164 5.795744 3.504702 -1.480560 7.509033 3.012642 10.972525 -2.725300 2.178600 3.217100 7.127502 4.725550 -0.978716 -96.743200 2.497255 37.554255 12.099267 -14.705791 -2.903837 -1.178893 -2.878332 -1.635503 13.036155 4.850610 1.967500 -7.125000 0.000000 0.000000 -10.666800 37.757800 1.928100 -9.858231 -5.557904 0.563437 106.255797 -2.138304 48.752581 -11.101368 17.005166 -3.325123 -0.540459 2.135116 -19.365584 -6.159790 -3.274565 0.610200 7.125000 0.000000 0.000000 16.768500 -35.066900 4.242700 
17.367760 17.623057 4.140278 -179.546503 -29.119452 172.651311 6.470688 0.852804 -0.294963 -27.296549 -15.580744 8.481510 -1.087866 7.522196 22.499307 -4.585248 22.037885 -22.283433 0.002800 -0.343100 -0.942600 -9.173529 0.058985 -2.661331 34.548898 14.481611 9.468228 -0.452396 -8.266905 22.974066 3.237281 -23.007201 -29.073317 -0.799100 5.705500 -15.932300 -1.210327 1.562513 4.775623 1.891282 2.260285 1.945667 -6.125629 0.829458 1.548817 5.856449 3.494465 -1.502853 7.500294 2.995664 11.003588 -2.745200 2.176100 3.246300 7.140279 4.737406 -0.985514 -96.738105 2.542348 37.725377 12.100298 -14.722122 -2.912729 -1.179412 -2.885255 -1.693415 13.053014 4.865826 1.975700 -7.125000 0.000000 0.000000 -10.653200 37.780300 1.919600 -9.856316 -5.562320 0.560552 106.292912 -2.163267 48.671589 -11.100688 17.000828 -3.322907 -0.537984 2.136939 -19.308550 -6.177299 -3.273704 0.612000 7.125000 0.000000 0.000000 16.753900 -35.068000 4.238200 
